<svg width="152" height="41" viewBox="0 0 152 41" xmlns="http://www.w3.org/2000/svg"><title>logo 7</title><g fill="#313048" fill-rule="evenodd"><path d="M17.808 21.64v-2.8a2.343 2.343 0 0 1 2.336-2.345 2.343 2.343 0 0 1 2.336 2.345v2.8h-4.672zm2.336-8.557c-2.998 0-5.462 2.322-5.711 5.266-.012.082-.025.163-.025.247v7.848c0 .942.761 1.706 1.7 1.706s1.7-.764 1.7-1.706v-1.392h4.672v1.392c0 .942.76 1.706 1.7 1.706.939 0 1.7-.764 1.7-1.706v-7.848c0-.084-.013-.165-.025-.247-.25-2.944-2.713-5.266-5.711-5.266z"/><path d="M20.144 37.42C10.911 37.42 3.4 29.884 3.4 20.618S10.911 3.814 20.144 3.814s16.744 7.538 16.744 16.804c0 9.266-7.511 16.804-16.744 16.804m0-37.02C9.037.4 0 9.47 0 20.617s9.037 20.216 20.144 20.216c11.107 0 20.144-9.069 20.144-20.216S31.25.4 20.144.4m39.369 21.24v-2.8a2.343 2.343 0 0 1 2.335-2.345 2.343 2.343 0 0 1 2.337 2.345v2.8h-4.672zm2.335-8.557c-2.997 0-5.461 2.322-5.71 5.266-.012.082-.025.163-.025.247v7.848c0 .942.761 1.706 1.7 1.706.938 0 1.7-.764 1.7-1.706v-1.392h4.672v1.392c0 .942.76 1.706 1.7 1.706.939 0 1.7-.764 1.7-1.706v-7.848c0-.084-.013-.165-.025-.247-.25-2.944-2.714-5.266-5.712-5.266zm34.918.001a5.71 5.71 0 0 0-4.036 1.67 5.706 5.706 0 0 0-4.036-1.67c-2.997 0-5.461 2.32-5.711 5.266-.011.08-.025.162-.025.246v7.848c0 .942.762 1.706 1.7 1.706.94 0 1.7-.764 1.7-1.706V18.84a2.343 2.343 0 0 1 2.336-2.344 2.343 2.343 0 0 1 2.337 2.344v4.192c0 .942.76 1.706 1.7 1.706.938 0 1.7-.764 1.7-1.706V18.84a2.343 2.343 0 0 1 2.335-2.344 2.343 2.343 0 0 1 2.336 2.344v7.604c0 .942.761 1.706 1.7 1.706.94 0 1.7-.764 1.7-1.706v-7.848c0-.084-.013-.166-.025-.246-.249-2.946-2.713-5.266-5.71-5.266M79.77 23.069a1.697 1.697 0 0 0-2.323.622 2.345 2.345 0 0 1-2.025 1.174 2.343 2.343 0 0 1-2.336-2.345v-3.653a2.343 2.343 0 0 1 2.336-2.345c.778 0 1.502.387 1.939 1.035a1.696 1.696 0 0 0 2.36.459 1.71 1.71 0 0 0 .457-2.37 5.728 5.728 0 0 0-4.756-2.536c-2.977 0-5.43 2.29-5.708 5.206a1.718 1.718 0 0 0-.028.28v4.436c0 .202.042.393.106.573.508 2.657 2.837 4.671 5.63 4.671a5.751 5.751 0 0 0 4.967-2.876 1.709 1.709 0 0 0-.62-2.331m57.791-.077a1.696 1.696 0 0 0-2.323.623 2.345 2.345 0 0 1-2.024 1.173 2.343 2.343 0 0 1-2.336-2.345V18.79a2.343 2.343 0 0 1 2.336-2.344c.778 0 1.502.387 1.938 1.034a1.696 1.696 0 0 0 2.36.46 1.71 1.71 0 0 0 .457-2.37 5.728 5.728 0 0 0-4.755-2.536c-2.977 0-5.43 2.289-5.708 5.205a1.718 1.718 0 0 0-.028.28v4.436c0 .202.041.394.106.573.507 2.657 2.837 4.672 5.63 4.672a5.752 5.752 0 0 0 4.967-2.877 1.709 1.709 0 0 0-.62-2.33m8.504 1.783c-.027 0-.052.006-.079.008a2.342 2.342 0 0 1-2.257-2.34V18.79a2.343 2.343 0 0 1 2.336-2.345c.777 0 1.502.388 1.938 1.036.26.386.398.839.398 1.31v3.64a2.335 2.335 0 0 1-2.336 2.344m5.72-6.412l-.002-.027c-.007-.056-.008-.114-.02-.169a5.728 5.728 0 0 0-.943-2.596 5.725 5.725 0 0 0-4.755-2.538c-2.98 0-5.434 2.293-5.708 5.213-.015.09-.028.18-.028.274v4.435c0 .202.04.394.106.573.507 2.657 2.837 4.672 5.63 4.672.059 0 .114-.012.171-.018a5.725 5.725 0 0 0 5.453-4.633c.069-.186.112-.384.112-.594V18.52c0-.054-.011-.104-.016-.157m-38.758.064h-4.612a2.34 2.34 0 0 1 2.305-1.982 2.334 2.334 0 0 1 2.307 1.982m2.447-2.857a5.728 5.728 0 0 0-4.754-2.537c-3.032 0-5.515 2.375-5.717 5.367-.007.065-.02.13-.02.196v4.436c0 .245.055.478.148.69.581 2.56 2.864 4.478 5.589 4.478h.007a5.753 5.753 0 0 0 4.96-2.877 1.71 1.71 0 0 0-.62-2.33 1.697 1.697 0 0 0-2.323.62 2.346 2.346 0 0 1-2.024 1.174h-.004a2.343 2.343 0 0 1-2.333-2.343v-.605h6.372c.94 0 1.7-.764 1.7-1.706v-1.961a1.7 1.7 0 0 0-.152-.7 5.737 5.737 0 0 0-.829-1.902"/></g></svg>